<svg id="Logo_estándar" data-name="Logo estándar" xmlns="http://www.w3.org/2000/svg" viewBox="0 0 815 120"><path d="M368.69,73.78c0,9.4,0,18.81,0,28.22,0,5,1.47,7,6.27,8.29,2.52.66,1.6,2.51,1.52,3.89,0,.55-1.37,1.48-2.13,1.49-8.7.1-17.4,0-26.1.09-1.9,0-2.51-.71-2.46-2.54,0-1.66.31-2.65,2.34-2.72,5.49-.2,5.48-.28,5.48-5.9q0-39.24,0-78.49c0-3.31-.27-6.62-.51-9.92a6.34,6.34,0,0,0-5.16-6.11c-2.49-.6-2.08-2.31-2-4,.06-1.93,1.56-1.64,2.77-1.64,8.43,0,16.86,0,25.29,0,1.92,0,2.72.54,2.72,2.59S375.9,9.62,374,9.64c-5.45,0-5.45.12-5.45,5.7,0,6.19.05,12.37,0,18.55,0,2.08.67,2.84,2.8,2.82q13.32-.14,26.64,0c2.08,0,2.91-.68,2.83-2.8-.2-5.54-.17-11.1-.41-16.65-.19-4.36-1.81-6.34-6.07-7.33-2.33-.53-1.68-2.13-1.78-3.54-.11-1.59.84-1.93,2.21-1.93,8.61,0,17.22.06,25.83,0,2,0,2.32,1,2.36,2.67.05,1.87-.64,2.54-2.5,2.5-5-.11-4.78-.6-4.78,5.06q0,39.38,0,78.76c0,3.22.19,6.44.24,9.67.05,3.47,1.73,5.94,5,6.86,2.66.75,2,2.58,2,4.24,0,2-1.66,1.49-2.8,1.5-8.25,0-16.5,0-24.76,0-2,0-2.88-.43-2.86-2.67s1.09-2.6,3-2.6c5.7,0,5.3.87,5.3-5.33q0-29.83,0-59.67c0-3.71,0-3.71-3.75-3.71-8.43,0-16.86.08-25.29,0-2.51,0-3.23.84-3.2,3.28.12,9.58,0,19.17,0,28.76Z"/><path d="M559,60c0,32.65-25.66,58.3-58.37,58.4-19.12.06-35.68-6.06-48.34-20.63C423.18,64.3,441.09,12,484.62,3.41c20.11-4,38.77-.52,54.7,13.21C552.17,27.71,559,43,559,60ZM452.35,52.36c.29,2.43.5,6.38,1.26,10.23,3.81,19.24,13.36,34.66,30.82,44.35,10.45,5.8,21.73,7.63,33.2,3.56,15.11-5.36,23.27-16.9,26-32.2,4.4-24.32-8.7-51.66-30.31-63.76-13.66-7.65-27.64-9.17-41.58-.67S452.69,35.29,452.35,52.36Z"/><path d="M50,39.52c.74.17,1.47.39,2.22.5,20.07,2.92,33,19.71,30.84,40C81,99.49,68.2,112.59,47.64,114.52c-13.69,1.29-27.55.86-41.33,1.23-1.8,0-2.07-.94-2-2.38s-.3-3,1.83-2.79c2.6.23,2.87-1.16,2.87-3.27q-.07-41,0-81.94a46.88,46.88,0,0,0-.41-8.56,10.58,10.58,0,0,0-2.79-5.48c-2-1.88-1.36-3.9-1.24-5.94,0-.34,1.26-.86,1.94-.88C18.57,4.28,30.67,4,42.76,4A23.78,23.78,0,0,1,58,9.2a16.4,16.4,0,0,1-4.22,28.25c-1.23.49-2.47.93-3.71,1.4ZM23.85,75.58h0q0,15.32,0,30.63c0,1.51,0,2.85,2,3.22,10,1.9,19.76,1.43,28.4-4.59,8.94-6.22,13.26-15.3,14.46-25.92,2.06-18.09-8.64-33-26.36-36.3-4.81-.91-9.81-.82-14.73-1-3.76-.15-3.76,0-3.76,3.62Zm0-51.71h0V34.08c0,1.26.15,2.45,1.81,2.35,5.45-.3,11-.24,16.31-1.08s8.93-5.46,9.63-11.48A12.44,12.44,0,0,0,44.68,11c-6-2.9-12.16-2.26-18.32-.26-1.82.6-2.61,1.5-2.53,3.46C24,17.42,23.87,20.65,23.87,23.87Z"/><path d="M629.49,55.71c0-12.54,0-25.08,0-37.62,0-3.44-1.17-6.11-4.33-7.71C623,9.27,623.74,7.25,624,5.64c.09-.53,1.81-1.11,2.8-1.13,5-.11,10,0,15.06-.06,1.87,0,2.76.47,2.77,2.56s-.87,2.57-2.74,2.61c-5.91.15-5.91.2-5.91,6,0,25.17.08,50.35-.08,75.52a41.86,41.86,0,0,1-1.82,12.14c-1.91,6.09-6.64,9.93-12.36,12.37a33.26,33.26,0,0,1-26.94,0c-11.31-4.83-15.17-14.18-15.13-25.8q.09-30.1,0-60.21a118.61,118.61,0,0,0-.24-12.08A11.1,11.1,0,0,0,577,11.66c-1.77-2-1.35-4-1.2-6,0-.42,1.14-1.1,1.76-1.11,7.71-.07,15.42,0,23.13,0,1.88,0,1.79,1.32,1.84,2.61s-.19,2.34-2,2.5c-5.78.5-5.77.57-5.77,6.5q0,35.47,0,71a65.22,65.22,0,0,0,.48,7.77c1.33,10.83,9.57,16.7,20.31,14.55,8.44-1.69,13.62-7.2,13.82-15.78.29-12.62.08-25.26.08-37.89Z"/><path d="M713.26,4.84c1.54-1,2.47-2,3.56-2.25,2-.5,2.91.45,2.86,2.62-.11,4.57.05,9.14-.1,13.7,0,.87-.91,2.37-1.51,2.43-1.57.16-3.7,1.06-4.38-1.64a20.34,20.34,0,0,0-1.6-4.27C707.78,7,696.28,4.83,689.33,11A13,13,0,0,0,690,31.23c4.58,3.65,9.9,6.41,15,9.36,5.58,3.23,11.37,6.1,17,9.33,26.22,15.19,21.85,49.9-1.25,62-17.4,9.11-35.26,9.41-52.43-.52-16.2-9.36-20.08-31.08-8.61-45.21,6.25-7.69,14.59-10.63,24.34-10.05,1.87.11,2.12,1.14,2.08,2.68,0,1.32-.37,1.9-1.87,1.86-13.88-.36-23.43,9.5-22.3,23.38,1.08,13.19,8.85,21.51,20.64,26.46,13,5.46,29.67,2.19,39-7.92,6.82-7.38,9.18-16.09,5.87-25.86a20,20,0,0,0-8.21-10c-5.43-3.63-11.2-6.74-16.7-10.27-6.31-4.06-12.84-7.9-18.65-12.61C674.2,36,674,23.8,678,15.21,682.2,6,692.5.69,703.47,2.2,707,2.69,710.49,4.07,713.26,4.84Z"/><path d="M776.38,76.18c0,10.48,0,21,0,31.44,0,2.18.61,3.18,2.89,2.94,5.49-.6,11.07-.74,16.47-1.81,6-1.2,9.63-5.46,10.77-11.41.58-3,2.44-2.55,4.37-2.5,2.4.06,1.66,1.94,1.68,3.2.08,5.19,0,10.39.08,15.59,0,2.08-.67,2.84-2.79,2.8q-26.32-.42-52.65-.65c-2.31,0-2.66-1-2.64-2.91,0-1.72.62-2.5,2.38-2.35a6.29,6.29,0,0,0,2.67-.06,4,4,0,0,0,1.77-1.72c.27-.47.07-1.23.07-1.85q0-41.4,0-82.79c0-2.24-.08-4.48-.17-6.71-.14-3.45-1.59-6.1-5-7.21-2.44-.8-1.63-2.7-1.61-4.24,0-2,1.71-1.46,2.85-1.46,15.25,0,30.49.06,45.74.07,2.41,0,4.83-.14,7.25-.26,1.5-.08,2.08.57,2.07,2.05,0,5.65.06,11.29-.07,16.93,0,.74-1,2-1.59,2.08-1.4.12-3.38,1-4-1.46-.23-1-.49-1.91-.81-2.84-1.7-5-5.16-8.5-10.16-9.47-5.85-1.13-11.89-1.3-17.86-1.72-.53,0-1.63,1.14-1.64,1.76-.12,7.62-.07,15.23-.1,22.85,0,1.55.74,2,2.16,2,3.05,0,6.1-.09,9.14,0,1.92.06,2.61-.76,2.45-2.57-.06-.62,0-1.25,0-1.88-.1-1.71.1-2.88,2.39-2.86,2.1,0,2.83.65,2.8,2.77-.09,7.35-.06,14.7,0,22,0,1.81-.31,2.8-2.48,2.82S789.94,56,789.9,54a20.82,20.82,0,0,0-.6-4.51c-1.56-6.62-5.74-7.54-11.18-7.93-2-.14-1.74,1.39-1.75,2.62q0,13.31,0,26.61v5.38Z"/><path d="M155.43,23.43c-4.92.62-5,.63-6.52-3.18-1.92-4.65-5.4-7.9-10.18-8.78C133,10.41,127,10.26,121.15,9.88c-.53,0-1.61,1.14-1.62,1.77-.12,7.61-.06,15.23-.09,22.84,0,1.56.78,2,2.18,2,3.14,0,6.28-.06,9.41,0,1.65,0,2.27-.72,2.19-2.28,0-.89.11-1.8,0-2.68-.3-2.52,1-3.32,3.17-2.81.75.17,1.88,1.16,1.89,1.8.13,7.88.07,15.76.12,23.64,0,1.66-.88,1.93-2.22,1.87s-2.85.32-3.16-1.89a30.18,30.18,0,0,0-1.77-7.49c-1.45-3.42-7-5.92-10.47-4.93-.62.18-1.25,1.57-1.27,2.42-.12,5.1-.06,10.21-.06,15.31,0,16,.06,31.89,0,47.83,0,2.57.7,3.62,3.32,3.31,5.4-.63,10.91-.72,16.19-1.85,6-1.27,9.42-5.54,10.71-11.5.62-2.87,1.92-3.71,4.73-2.86a2.21,2.21,0,0,1,1.2,1.68c.09,6.18,0,12.36.07,18.54,0,1.77-1,2.1-2.45,2-3-.26-6-.76-9-.78q-21.78-.12-43.57,0c-2.46,0-3.11-.81-3-3.1.1-1.61.64-2.3,2.26-2.15.71.06,1.44-.06,2.15,0,1.93.19,2.58-.76,2.4-2.55-.06-.62,0-1.25,0-1.88q0-40,0-80.07c0-2.87-.09-5.73-.15-8.6-.07-3.47-1.53-6.13-4.9-7.26C96.93,9.37,97.76,7.51,97.77,6c0-2,1.69-1.48,2.82-1.48,15.42,0,30.84,0,46.26,0,2.23,0,4.45-.42,6.68-.41.63,0,1.81.82,1.82,1.29C155.47,11.32,155.43,17.3,155.43,23.43Z"/><path d="M186.19,4.48c4.12,0,8.25.08,12.37,0,2.1-.06,2.54.87,2.56,2.74s-.68,2.52-2.53,2.44c-4.4-.16-4.26-.32-4.26,4.47q0,46.35,0,92.7c0,3.87.07,4,3.92,3.65a69.52,69.52,0,0,0,11.66-1.64c6.17-1.68,10.36-5.69,11.22-12.31.37-2.92,2.26-2.38,4.09-2.41,2.2,0,1.77,1.57,1.78,2.83,0,5.38,0,10.75,0,16.13,0,3.47-.9,4.1-4.43,3.43a34.42,34.42,0,0,0-6.06-.7c-14.07-.07-28.15-.11-42.23,0-2.53,0-3-1-2.87-3.18.1-1.5.69-2,2.13-2,5.89-.36,5.9-.4,5.9-6.36q0-37.89,0-75.78c0-4.11-.25-8.22-.52-12.33a6.18,6.18,0,0,0-5.23-6c-2.54-.49-2.22-2.08-2.21-3.77,0-2.16,1.61-1.76,2.88-1.77C178.3,4.45,182.24,4.48,186.19,4.48Z"/><path d="M256,4.47c4.4,0,8.79.08,13.19,0,2-.05,2.63.77,2.62,2.7s-.7,2.48-2.54,2.51c-5.06.09-5.05.16-5.05,5.25v91.92c0,3.85,0,4,3.92,3.61a66.57,66.57,0,0,0,11.66-1.65c6-1.67,10.25-5.58,11.1-12.1.36-2.75,2-2.63,4-2.63,2.4,0,1.89,1.69,1.9,3,0,5.28,0,10.57,0,15.85,0,3.64-.73,4.19-4.26,3.59a43,43,0,0,0-6.86-.74c-13.1-.07-26.19,0-39.28,0-1.72,0-3.12.08-3.1-2.44,0-2.36,1-3,3.07-2.77,2.24.27,2.91-.73,2.9-2.93q-.07-41.4,0-82.78c0-2.78-.1-5.56-.36-8.32-.37-3.81-2.23-6-5.94-6.56-2.5-.37-2.38-1.83-2.38-3.62,0-2.16,1.52-1.84,2.82-1.85C247.54,4.46,251.76,4.47,256,4.47Z"/></svg>